<svg xmlns="http://www.w3.org/2000/svg" width="138.972" height="138.972" viewBox="0 0 138.972 138.972">
  <path id="Hematology" d="M2125.988,619.992a41.746,41.746,0,0,1-16.26-2.965c-7.191-3.045-11.715-8.185-12.74-14.474a17.725,17.725,0,0,1,3.488-13.374c5.311-7.36,15.419-12.57,28.464-14.666,10.191-1.638,19.344-.909,26.476,2.112,7.189,3.046,11.715,8.186,12.74,14.474a17.716,17.716,0,0,1-3.488,13.373c-5.308,7.361-15.417,12.571-28.464,14.667a64.535,64.535,0,0,1-10.216.853m13.323-40.032a59.15,59.15,0,0,0-9.368.79c-11.212,1.8-20.086,6.222-24.344,12.126a11.557,11.557,0,0,0-2.376,8.661c1.3,7.993,12.707,14.466,31.978,11.366,11.213-1.8,20.085-6.222,24.343-12.126a11.56,11.56,0,0,0,2.376-8.66c-1.075-6.6-9.031-12.157-22.609-12.157m-13.973,27.39a31.644,31.644,0,0,1-8.467-1.026,1.564,1.564,0,0,1-1.025-2.107l.408-.98a1.625,1.625,0,0,1,1.952-.917c7.976,2.228,22.792-.127,29.922-6.022a1.565,1.565,0,0,1,2.078.08l.7.665a1.613,1.613,0,0,1,.039,2.458c-6.234,5.149-16.777,7.849-25.6,7.849m45.385,51.374a1.572,1.572,0,0,0,2.038,1.182c9.254-3.227,20.645-16.778,22.943-27.35a1.581,1.581,0,0,0-1.354-1.9l-1.071-.137a1.58,1.58,0,0,0-1.738,1.222c-1.945,8.337-11.923,21.255-20.01,24.091a1.621,1.621,0,0,0-1,1.962l.194.924M2112.564,697.4a1.589,1.589,0,0,0-1.328-1.631c-4.228-.77-9.428-4-13.134-8.267-2.666-3.069-4.247-6.3-4.479-9.091a1.576,1.576,0,0,0-1.413-1.476l-1.085-.095a1.569,1.569,0,0,0-1.719,1.619c.224,3.8,2.144,7.936,5.527,11.83,4.478,5.154,10.49,8.809,15.773,9.686a1.573,1.573,0,0,0,1.806-1.493Zm72.648-18.46a10.541,10.541,0,0,0-10.458,9.343,10.523,10.523,0,1,0,6.175,10.794,10.525,10.525,0,1,0,4.283-20.137Zm-14.74,25.268a6.317,6.317,0,1,1,6.317-6.317A6.322,6.322,0,0,1,2170.473,704.209Zm14.74-8.423a6.317,6.317,0,1,1,6.317-6.317A6.322,6.322,0,0,1,2185.212,695.787Zm-90.543-77.908a10.54,10.54,0,0,0-10.457,9.343,10.524,10.524,0,1,0,6.174,10.794,10.525,10.525,0,1,0,4.283-20.137Zm-14.74,25.268a6.317,6.317,0,1,1,6.317-6.317A6.323,6.323,0,0,1,2079.929,643.146Zm14.74-8.423a6.317,6.317,0,1,1,6.317-6.317A6.324,6.324,0,0,1,2094.669,634.723Zm113.565-6.449a18.329,18.329,0,0,0-6.682-12.784c-11.9-9.465-29.531-.542-40.8,13.173-.692.84-1.342,1.686-1.972,2.532a10.523,10.523,0,0,0-1.617-1.942l-.1-.094a10.671,10.671,0,0,0-.834-.692l-.165-.123a10.414,10.414,0,0,0-.984-.633l-.042-.026a10.36,10.36,0,0,0-1.121-.537l-.2-.076c-.3-.117-.614-.221-.93-.31-.119-.034-.24-.065-.361-.094-.286-.07-.576-.125-.872-.172-.121-.019-.24-.041-.362-.055a10.4,10.4,0,0,0-1.248-.081,10.528,10.528,0,1,0,0,21.056c.2,0,.389-.02.584-.031a28.955,28.955,0,0,0-.979,10.629,18.333,18.333,0,0,0,6.684,12.786,17.917,17.917,0,0,0,11.421,3.928c10.109,0,21.356-7.337,29.377-17.1C2205.207,647.671,2209.187,637.246,2208.234,628.274Zm-64.609,8.615a6.323,6.323,0,0,1,6.317-6.317,6.192,6.192,0,0,1,.963.081l.169.026a6.171,6.171,0,0,1,.881.226l.145.054a6.279,6.279,0,0,1,1.653.9l.073.052a6.588,6.588,0,0,1,.7.644l.034.037a6.312,6.312,0,0,1-3.494,10.5l-.062.011a6.283,6.283,0,0,1-7.382-6.22Zm48.517,16.742c-12.288,14.963-25.386,17.48-31.974,12.241a12.176,12.176,0,0,1-4.339-8.519c-.761-7.174,2.815-16.177,9.811-24.693,8.493-10.34,17.372-14.737,24.223-14.737a11.535,11.535,0,0,1,12.089,11.016C2202.715,636.114,2199.138,645.115,2192.142,653.631Zm-57.417,25.3a10.46,10.46,0,0,0-6.306,2.118,42.4,42.4,0,0,0-10.309-15.079c-7.466-7.066-15.856-10.661-23.626-10.135a19.47,19.47,0,0,0-14.03,7.254c-9.6,11.959-3.381,28.852,7.718,39.361,6.985,6.611,14.775,10.187,22.112,10.187q.76,0,1.513-.052a19.466,19.466,0,0,0,14.031-7.254,21.162,21.162,0,0,0,3.657-6.753,10.523,10.523,0,1,0,5.24-19.647ZM2120.9,701.373a13.038,13.038,0,0,1-9.534,4.906c-5.987.41-12.682-2.581-18.852-8.421-11.889-11.255-12.588-24.023-7.134-30.818a13.043,13.043,0,0,1,9.534-4.906c.362-.025.727-.037,1.095-.037,5.7,0,11.961,2.972,17.757,8.458C2125.656,681.808,2126.355,694.577,2120.9,701.373Zm13.824-5.6a6.317,6.317,0,1,1,6.317-6.317A6.323,6.323,0,0,1,2134.725,695.773Z" transform="translate(-2069.401 -573.661)" fill="#5a5454"/>
</svg>
