<svg xmlns="http://www.w3.org/2000/svg" width="132.153" height="132.14" viewBox="0 0 132.153 132.14">
  <g id="Oncology_Icon" data-name="Oncology Icon" transform="translate(-195.94 -243.261)">
    <path id="Path_802" data-name="Path 802" d="M324.429,343.693c1.525-4.3.732-9.469-2.074-12.577a10.624,10.624,0,0,0-10.259-3.594,8.865,8.865,0,0,0-5.844-4.114c-3.328-.709-7.675-.3-10.548,2.724-5.311-.886-11.142,1.571-14.874,6.394a16.425,16.425,0,0,0-3.248,11.064,12.2,12.2,0,0,0-1.513,7.418,12.841,12.841,0,0,0,4.029,7.737,9.513,9.513,0,0,0,2.674,9.467c3.073,2.961,6.411,2.836,9.21,2.1a14.042,14.042,0,0,0,8.759,4.972,9.742,9.742,0,0,0,1.539.121c3.6,0,7.1-1.91,9.548-4.043a11.576,11.576,0,0,0,9.907-4.206c3.05-3.331,3.009-6.714,2.221-9.928,2.041-1.719,4.028-3.585,3.888-7.179C327.729,347.1,326.11,345.247,324.429,343.693Zm-2.256,9.778a1.957,1.957,0,0,0-2.775-.166l-.06.055a1.958,1.958,0,0,0-.341,2.505c.343.537.639,1.058.821,1.394,1,3.426.732,5.264-1.033,7.192-1.59,1.736-3.69,3.427-7.209,2.838a15.476,15.476,0,0,1-3.143-1.4,1.965,1.965,0,0,0-2.536.445l-.049.061a1.962,1.962,0,0,0,.513,2.914c.3.176.585.336.87.485a8.927,8.927,0,0,1-5.858,1.542c-3.375-.54-5.228-2.144-7.123-4.559-.007-.008-.016-.014-.023-.022l0,0c-.376-.462-1.2-1.5-1.925-2.49a1.958,1.958,0,0,0-2.6-.51l-.068.042a1.957,1.957,0,0,0-.566,2.826c.031.043.063.085.1.128a4.5,4.5,0,0,1-3.622-1.412,5.578,5.578,0,0,1-1.786-4.088,1.946,1.946,0,0,0,2.54-1.177l.027-.076a1.947,1.947,0,0,0-.94-2.385,14.212,14.212,0,0,1-1.736-1.028l-.16-.144a9.329,9.329,0,0,1-3.466-6.007,8.359,8.359,0,0,1,1.214-5.172,18.887,18.887,0,0,1,3.838-3.2,2,2,0,0,0-2.087-3.411c-.38.233-.741.476-1.087.721a11.607,11.607,0,0,1,2.09-4.391,12.372,12.372,0,0,1,9.454-5.022c-.108.264-.22.548-.336.854a2,2,0,0,0,1.28,2.607h0a2.008,2.008,0,0,0,2.47-1.217,15.369,15.369,0,0,1,1.254-2.715c2.172-3.071,6.463-2.34,7.3-2.162,1.85.394,2.692,1.287,4.084,3.575a20.737,20.737,0,0,1,.895,2.2,1.975,1.975,0,0,0,2.236,1.329l.075-.015a1.961,1.961,0,0,0,1.494-2.543q-.105-.312-.212-.6a6.934,6.934,0,0,1,5.394,2.53c2.043,2.264,2.421,6.448.861,9.526-.017.032-.017.068-.032.1l-.013-.006a16.256,16.256,0,0,1-1.174,2.07,2,2,0,1,0,3.319,2.231c.064-.1.12-.186.18-.279a4.111,4.111,0,0,1,1.32,2.763C323.9,351.592,323.388,352.37,322.173,353.471Z" fill="#5a5454"/>
    <path id="Path_803" data-name="Path 803" d="M277.6,325.37A15.385,15.385,0,0,0,284.8,311a15.929,15.929,0,0,0-.62-3.5,17.053,17.053,0,0,0,5.85-1.65c2.17,2,4.52,3.84,8.02,3.84.17,0,.35,0,.53-.01,4.51-.24,6.52-2.92,8.55-5.85a14.819,14.819,0,0,0,14.08-4.41c3.07-3.37,3.9-7.31,2.65-12.69,2.83-3.82,5.17-9.43,3.86-14.61a17.671,17.671,0,0,0-7.6-10.71c.72-3.8.58-7.99-3.55-11.57a11.882,11.882,0,0,0-12.39-2.13,16.337,16.337,0,0,0-10.47-4.43,15.431,15.431,0,0,0-9.3,2.87c-2.43.07-10.49.69-15.89,5.71-5.19,4.83-6.7,11.89-4.23,19.53a11.7,11.7,0,0,0-2.78,5.32,29.407,29.407,0,0,0-8.64-1.4c-6.17-6.8-13.96-6.05-16.61-5.8-6.64.64-11.37,3.97-13.81,9.7-4.3-.15-8.69-.03-12.38,4.39-3.09,3.7-3.11,7.77-2.75,11.53-6.62,3.49-11.38,10.66-11.38,17.52a18.52,18.52,0,0,0,8.92,15.73,15.322,15.322,0,0,0,2.21,14.13c2.6,3.59,8.41,6.48,15.86,5.43,4.49,5.71,11.93,9.04,19.91,9.04a28.974,28.974,0,0,0,5.14-.46,26.784,26.784,0,0,0,16.08-9.91,19.894,19.894,0,0,0,9.99-7.32A20.923,20.923,0,0,0,277.6,325.37Zm-.02-50.01c-2.01-1.96-3.66-4.65-2.53-7.72a6.1,6.1,0,0,1,5.66-4.36,1.838,1.838,0,0,0,1.59-1.84v-.3a1.825,1.825,0,0,0-1.99-1.84,10.039,10.039,0,0,0-9.01,6.96c-.07.19-.13.38-.19.58a1.977,1.977,0,0,0-.8.23c-1.04.57-1.9,1.1-2.62,1.58-.89-3.76-1.16-9.48,3.55-13.86,2.74-2.55,6.5-3.69,9.4-4.22a27.241,27.241,0,0,0-1.95,3.5,1.948,1.948,0,0,0,1.16,2.68l.1.03a1.925,1.925,0,0,0,2.36-1.01,24.855,24.855,0,0,1,4.13-6.15,11.572,11.572,0,0,1,7.05-2.35,12.768,12.768,0,0,1,8.63,3.98l.25.22a21.274,21.274,0,0,1,1.87,2.67,1.965,1.965,0,0,0,2.5.81l.09-.05a1.934,1.934,0,0,0,.88-2.74c-.24-.42-.48-.79-.71-1.15a7.834,7.834,0,0,1,6.95,1.85,6.737,6.737,0,0,1,2.47,6.12c-.53-.33-1.09-.67-1.65-1a1.952,1.952,0,0,0-2.73.82l-.05.1a1.948,1.948,0,0,0,.76,2.53c1.86,1.09,3.99,2.52,4.01,2.54h.01c.01,0,.01.01.02.02,3.4,2.21,5.9,4.6,7.05,9.12.77,3.02-.31,6.45-1.88,9.21a23.481,23.481,0,0,0-1.67-2.48,2.09,2.09,0,0,0-.2-.22,14.868,14.868,0,0,0-.53-6.02,1.855,1.855,0,0,0-2.58-1.16l-.29.14a1.88,1.88,0,0,0-.94,2.24,11.486,11.486,0,0,1-.92,8.55c-2.48,4.77-7.61,7.14-12.01,5.8a1.83,1.83,0,0,0-2.19.86l-.16.32a1.839,1.839,0,0,0,1.07,2.61,13.671,13.671,0,0,0,12.18-2.27,15.8,15.8,0,0,0,4.66-5.47c.1-.2.18-.41.28-.61a21.017,21.017,0,0,1,1.12,2.28c1.47,5.55.14,8.01-1.53,9.83a10.764,10.764,0,0,1-11.21,2.92c-.52-.22-1.64-.72-2.69-1.3a1.944,1.944,0,0,0-2.48.54l-.06.09a1.94,1.94,0,0,0,.61,2.87c.3.17.6.33.89.47-1.6,2.23-2.67,3.26-4.94,3.37-1.86.1-3.18-.64-4.79-2.03.47-.35.99-.75,1.53-1.21a1.943,1.943,0,0,0,.1-2.87l-.08-.08a1.938,1.938,0,0,0-2.62-.08,21.976,21.976,0,0,1-3.15,2.24l.01.01c-.03.02-.07.03-.1.05a12.969,12.969,0,0,1-7.01,1.87,17.442,17.442,0,0,0-6.42-5.16,22.976,22.976,0,0,0-5.16-15.77,17.2,17.2,0,0,0-5.4-4.35,7.677,7.677,0,0,1,2.62-4.83c.02-.02.03-.04.05-.06l.01.01a20.024,20.024,0,0,1,2.87-2.03,12.812,12.812,0,0,0,3.99,6.86,1.832,1.832,0,0,0,2.7-.19l.2-.24A1.84,1.84,0,0,0,277.58,275.36Zm-62.9,12.08c1.61-1.93,3.18-2.29,6.19-2.26-.01.05-.02.1-.03.16a2.933,2.933,0,0,0,.37,1.94,18.468,18.468,0,0,0-6.28,5.18,3.623,3.623,0,0,0-.46.06c-.46.11-.88.23-1.29.34C213.1,290.63,213.4,288.97,214.68,287.44Zm61.26,31.08a2.946,2.946,0,0,0-4.14-1.48l-.1.06a2.938,2.938,0,0,0-1.33,3.66,23.973,23.973,0,0,1,1.09,3.43l.04.39a15.67,15.67,0,0,1-2.45,11.38,14.116,14.116,0,0,1-7.39,5.12,30.913,30.913,0,0,1-3.26.13,18.477,18.477,0,0,0,4.55-12.43,3.008,3.008,0,0,0-3.65-2.89,3.038,3.038,0,0,0-2.35,3.06,12.436,12.436,0,0,1-13.7,12.54,3.029,3.029,0,0,0-3.21,2.09,3.113,3.113,0,0,0-.14.89,3.023,3.023,0,0,0,2.7,2.99,18.487,18.487,0,0,0,5.84-.32,21.028,21.028,0,0,0,2.66-.81,2.942,2.942,0,0,0,.67.23,32.006,32.006,0,0,0,3.32.48,19.567,19.567,0,0,1-8.17,3.58c-6.77,1.21-13.43-.64-17.71-4.68.63-.29,1.3-.62,2.06-1.02a2.961,2.961,0,0,0,1.18-4.12l-.06-.1a2.959,2.959,0,0,0-3.91-1.1,26.551,26.551,0,0,1-4.88,2.12c-6.57,1.5-10.51-1.13-11.67-2.73a9.491,9.491,0,0,1-1.44-8.5c.7.15,1.49.28,2.43.41a3.011,3.011,0,0,0,3.4-2.72v-.04a3.012,3.012,0,0,0-2.55-3.22,32.254,32.254,0,0,1-3.5-.7,3.513,3.513,0,0,0-.63-.27c-4.32-1.28-7.7-6.24-7.7-11.3,0-5.11,4.19-10.73,9.55-12.85-.1.5-.19,1-.26,1.51a3.008,3.008,0,0,0,3.17,3.4,3.048,3.048,0,0,0,2.79-2.68,12.447,12.447,0,0,1,15.41-10.36,3,3,0,0,0,3.48-1.58h.01a3.018,3.018,0,0,0-1.96-4.22,18.378,18.378,0,0,0-5.82-.55c-.47.03-.94.09-1.4.15.18-.99.38-1.87.51-2.36,1.39-4.66,4.47-7.15,9.41-7.63,3.94-.37,8.47-.11,12.22,4.6a25.937,25.937,0,0,1,2.44,5.6,2.92,2.92,0,0,0,3.27,2.04l.11-.02a2.948,2.948,0,0,0,2.35-3.78c-.24-.81-.51-1.58-.78-2.29a20.4,20.4,0,0,1,4.98,1.44,11.936,11.936,0,0,1,4.59,3.35c3.58,4.45,4.09,8.68,3.75,13.66v.05h-.01c0,.01-.02.4-.06,1.02-.07,1.07-.19,2.81-.36,4.44a2.953,2.953,0,0,0,2.38,3.2l.11.02a2.938,2.938,0,0,0,3.47-2.58c.01-.1.02-.21.03-.31.03-.27.06-.53.08-.8a9.534,9.534,0,0,1,1.7,1.58,8.035,8.035,0,0,1,1.72,4.72c.02.23.03.49.03.75a9.315,9.315,0,0,1-2.75,6.77C276.05,318.8,276,318.66,275.94,318.52Z" fill="#5a5454"/>
  </g>
</svg>
