<svg xmlns="http://www.w3.org/2000/svg" width="203.451" height="237.467" viewBox="0 0 203.451 237.467">
  <g id="O_Y_Logo" data-name="O+Y Logo" transform="translate(0.025 -0.02)">
    <g id="Group_197" data-name="Group 197" transform="translate(0.53 115.516)">
      <path id="Path_855" data-name="Path 855" d="M16.368,177.517v13.54H11.819v-13.54L.5,157.206H5.578L11.4,167.679c.952,1.693,2.116,3.808,2.856,5.4h.106c.74-1.587,1.8-3.7,2.75-5.4l5.712-10.473h4.655Zm33.216,13.435v-4.02h-12.8V175.718H47.892V171.7H36.784V161.226H48l1.481-4.02H32.13v33.745H49.584Zm29.62,0c-5.4-8.674-9.1-14.81-10.261-15.445h0a9.51,9.51,0,0,0,6.453-8.992c0-5.078-3.279-9.309-11.425-9.309H56.249v33.745H60.8V176.988h3.385c1.375.317,4.337,5.289,9.732,13.964H79.2ZM63.971,161.226c4.866,0,6.664,2.645,6.664,5.712a6.3,6.3,0,0,1-6.453,6.241H60.9V161.226Zm42.42-4.02h-4.337L93.8,178.68q-1.111,2.856-1.9,5.4h-.106c-.529-1.8-1.164-3.7-1.8-5.5l-7.617-21.369H77.829l12.377,33.957H92.85Zm4.126,4.549a20.3,20.3,0,0,0,.423,25.6,14.031,14.031,0,0,0,10.367,4.231,14.673,14.673,0,0,0,10.79-4.549c2.856-3.068,4.443-7.511,4.443-12.694a19.009,19.009,0,0,0-3.808-11.954,14.383,14.383,0,0,0-11.425-5.289,13.805,13.805,0,0,0-10.79,4.655m10.9-.74c6.876,0,10.79,5.5,10.79,13.223,0,8.145-4.231,13.223-10.79,13.223s-10.79-5.078-10.79-13.223,4.231-13.223,10.79-13.223m39.458-3.808h-4.337l-5.078,10.473c-.74,1.693-1.8,3.7-2.433,5.4h-.106c-.74-1.587-1.8-3.7-2.539-5.4l-5.183-10.473h-4.549l10.155,20.2v13.54h4.126v-13.54Z" transform="translate(-0.5 -106.429)" fill="#f26322"/>
      <path id="Path_856" data-name="Path 856" d="M11.46,226.12C8.5,221.359,6.7,216.811,6.7,211.2a26.146,26.146,0,0,1,4.76-14.7h2.01a27.55,27.55,0,0,0-4.02,14.7,28.012,28.012,0,0,0,4.02,14.916Z" transform="translate(-0.141 -104.15)" fill="#f26322"/>
      <path id="Path_857" data-name="Path 857" d="M16.239,200.279H13.7V197h2.539ZM13.7,203.241h2.539v16.5H13.7v-16.5Z" transform="translate(0.264 -104.121)" fill="#f26322"/>
      <path id="Path_858" data-name="Path 858" d="M18.9,202.923h2.539v2.221h.106a5.245,5.245,0,0,1,4.972-2.645c4.866,0,7.3,4.02,7.3,8.674s-2.327,8.569-7.193,8.569a6.012,6.012,0,0,1-5.078-2.539h-.106v8.569H18.9v-22.85Zm7.4,2.01c-3.491,0-4.76,3.174-4.76,6.241,0,3.279,1.375,6.241,4.972,6.241,3.491,0,4.76-3.174,4.76-6.347-.106-3.068-1.693-6.136-4.972-6.136" transform="translate(0.564 -103.803)" fill="#f26322"/>
      <path id="Path_859" data-name="Path 859" d="M37.539,200.279H35V197h2.539ZM35,203.241h2.539v16.5H35Z" transform="translate(1.496 -104.121)" fill="#f26322"/>
      <rect id="Rectangle_176" data-name="Rectangle 176" width="2.539" height="22.744" transform="translate(42.102 92.879)" fill="#f26322"/>
      <path id="Path_860" data-name="Path 860" d="M48.139,200.279H45.6V197h2.539ZM45.6,203.241h2.539v16.5H45.6Z" transform="translate(2.109 -104.121)" fill="#f26322"/>
      <path id="Path_861" data-name="Path 861" d="M50.7,202.923h2.433v2.433h.106a5.943,5.943,0,0,1,5.078-2.856,4.228,4.228,0,0,1,4.337,2.856,5.77,5.77,0,0,1,4.972-2.856c3.174,0,5.289,1.375,5.289,4.76V219.32H70.376V208.53c0-2.01-.529-3.7-3.068-3.7a3.916,3.916,0,0,0-4.126,4.231V219.32H60.644V208.53c0-2.116-.635-3.7-2.962-3.7-3.068,0-4.231,2.962-4.231,4.231V219.32H50.912v-16.4Z" transform="translate(2.404 -103.803)" fill="#f26322"/>
      <path id="Path_862" data-name="Path 862" d="M87.212,219.4H84.778v-2.645h-.106A5.4,5.4,0,0,1,79.6,219.72c-4.126,0-5.4-2.433-5.4-6.03V202.9h2.539v11.213a2.975,2.975,0,0,0,3.174,3.279c3.174,0,4.655-2.221,4.655-5.183V202.9h2.539v16.5Z" transform="translate(3.764 -103.779)" fill="#f26322"/>
      <path id="Path_863" data-name="Path 863" d="M89.1,202.923h2.433v2.433h.106a5.943,5.943,0,0,1,5.078-2.856,4.228,4.228,0,0,1,4.337,2.856,5.77,5.77,0,0,1,4.972-2.856c3.174,0,5.289,1.375,5.289,4.76V219.32h-2.539V208.53c0-2.01-.529-3.7-3.068-3.7a3.916,3.916,0,0,0-4.126,4.231V219.32H99.044V208.53c0-2.116-.635-3.7-2.962-3.7-3.068,0-4.231,2.962-4.231,4.231V219.32H89.312v-16.4Z" transform="translate(4.625 -103.803)" fill="#f26322"/>
      <path id="Path_864" data-name="Path 864" d="M126.51,219.32a3.181,3.181,0,0,1-1.9.423c-1.375,0-2.221-.74-2.221-2.539a6.8,6.8,0,0,1-5.5,2.539c-2.856,0-5.183-1.375-5.183-4.655,0-3.7,2.645-4.549,5.289-5.078,2.856-.529,5.289-.423,5.289-2.433,0-2.327-1.9-2.75-3.491-2.75-2.221,0-3.808.74-3.914,3.174h-2.539c.106-4.126,3.174-5.5,6.664-5.5,2.856,0,5.924.635,5.924,4.549v8.463c0,1.269,0,1.8.846,1.8a1.141,1.141,0,0,0,.74-.212Zm-4.126-8.357c-.952.74-2.962.846-4.655,1.164s-3.174.952-3.174,2.962c0,1.8,1.481,2.433,3.068,2.433,3.385,0,4.76-2.221,4.76-3.7Z" transform="translate(5.933 -103.803)" fill="#f26322"/>
      <path id="Path_865" data-name="Path 865" d="M127,197h2.539v8.463h.106a5.245,5.245,0,0,1,4.972-2.645c4.866,0,7.193,4.02,7.193,8.674s-2.327,8.569-7.193,8.569a6.012,6.012,0,0,1-5.078-2.539h-.106v2.221H127Zm7.3,8.251c-3.491,0-4.866,3.174-4.866,6.241,0,3.279,1.375,6.241,4.972,6.241,3.491,0,4.76-3.174,4.76-6.347,0-3.068-1.481-6.136-4.866-6.136" transform="translate(6.818 -104.121)" fill="#f26322"/>
      <path id="Path_866" data-name="Path 866" d="M140.8,226.12a27.55,27.55,0,0,0,4.02-14.7A28.012,28.012,0,0,0,140.8,196.5h2.01c2.962,4.76,4.76,9.309,4.76,14.916a26.146,26.146,0,0,1-4.76,14.7Z" transform="translate(7.616 -104.15)" fill="#f26322"/>
      <path id="Path_867" data-name="Path 867" d="M194.027,139.106l.529-11.742-1.9-1.164c-3.068,3.6-19.676,19.993-39.352,29.514l.212.212c.106.106.212.212.317.212,25.494-6.982,40.2-17.031,40.2-17.031" transform="translate(8.339 -108.217)" fill="#b6b525"/>
      <path id="Path_868" data-name="Path 868" d="M153.829,156.137a1.522,1.522,0,0,1-.317-.212l-.212-.212h0c19.676-9.415,36.284-25.917,39.352-29.514l1.9,1.164-.529,11.742s-14.7,10.05-40.2,17.031h0" transform="translate(8.339 -108.217)" fill="#b6b525"/>
      <path id="Path_869" data-name="Path 869" d="M153.146,157.121c7.828-28.033,23.378-45.7,23.378-45.7l-1.8-2.221-12.906,3.174s-5.924,16.4-9.521,44.112l.106.317.529.317h.212" transform="translate(8.282 -109.2)" fill="#d0103a"/>
      <path id="Path_870" data-name="Path 870" d="M152.935,157.221l-.529-.317-.106-.317c3.6-27.716,9.521-44.112,9.521-44.112l12.906-3.174,1.8,2.221s-15.55,17.666-23.378,45.7h-.212" transform="translate(8.282 -109.194)" fill="#b90b39"/>
      <path id="Path_871" data-name="Path 871" d="M191.7,137.725l.952-11.425s-16.82,18.3-39.352,29.514l.317.212c25.6-8.463,38.083-18.3,38.083-18.3" transform="translate(8.339 -108.211)" fill="#dfdf00"/>
      <path id="Path_872" data-name="Path 872" d="M152.829,156.8c7.3-30.255,21.9-47.6,21.9-47.6l-13.646,2.75s-5.607,16.714-8.78,44.641Z" transform="translate(8.282 -109.2)" fill="#d0103a"/>
      <path id="Path_873" data-name="Path 873" d="M138.813,150.735c-.74,1.375-4.231.846-7.828-1.164-3.491-2.01-5.818-4.76-5.078-6.03.74-1.375,4.231-.846,7.828,1.164s5.818,4.76,5.078,6.03" transform="translate(6.747 -107.258)" fill="#f26322"/>
      <path id="Path_874" data-name="Path 874" d="M142.477,142.3c-.529,1.058-3.808.317-7.193-1.587s-5.712-4.337-5.078-5.289c.529-1.058,3.808-.317,7.193,1.587,3.385,1.8,5.607,4.231,5.078,5.289" transform="translate(6.997 -107.711)" fill="#f26322"/>
      <path id="Path_875" data-name="Path 875" d="M151.336,141.422c-.423.846-2.962.212-5.712-1.269-2.645-1.481-4.443-3.385-4.02-4.231s2.962-.212,5.607,1.269c2.75,1.481,4.549,3.385,4.126,4.231" transform="translate(7.659 -107.676)" fill="#f26322"/>
      <path id="Path_876" data-name="Path 876" d="M163.51,166.438c-.846,1.269,1.269,4.126,4.655,6.347s6.876,2.962,7.722,1.587c.846-1.269-1.269-4.126-4.655-6.347s-6.876-2.962-7.722-1.587" transform="translate(8.919 -105.929)" fill="#f26322"/>
      <path id="Path_877" data-name="Path 877" d="M169.306,159.121c-.635.952,1.481,3.491,4.76,5.607s6.453,2.962,7.088,2.01-1.481-3.491-4.76-5.607-6.453-2.962-7.088-2.01" transform="translate(9.259 -106.335)" fill="#f26322"/>
      <path id="Path_878" data-name="Path 878" d="M166.505,151.319c-.529.74,1.164,2.75,3.7,4.443s5.078,2.327,5.607,1.587-1.164-2.75-3.7-4.443c-2.645-1.693-5.183-2.433-5.607-1.587" transform="translate(9.098 -106.784)" fill="#f26322"/>
      <path id="Path_879" data-name="Path 879" d="M163.343,147.207c-.212.317-1.8-.212-3.491-1.164-1.693-1.058-2.962-2.221-2.75-2.539s1.8.212,3.491,1.269c1.693.952,2.962,2.116,2.75,2.433" transform="translate(8.558 -107.221)" fill="#f26322"/>
    </g>
    <g id="Group_200" data-name="Group 200" transform="translate(80.715 106.524)">
      <g id="Group_199" data-name="Group 199">
        <g id="Group_198" data-name="Group 198">
          <path id="Path_880" data-name="Path 880" d="M113.431,114.664H99.361V100.7H90.369v13.964H76.3v9.1H90.369v14.069h8.992V123.761h14.069Z" transform="translate(-76.3 -100.7)" fill="#008fb4"/>
        </g>
      </g>
    </g>
    <g id="Group_202" data-name="Group 202" transform="translate(-0.025 0.019)">
      <path id="Path_881" data-name="Path 881" d="M83.113,66.559a.808.808,0,0,0-.529-.212h-.846a1.051,1.051,0,0,0-.846.635l-5.4,14.81-.423-14.7a.723.723,0,0,0-.74-.74h-.846a.723.723,0,0,0-.74.74l.846,17.56a.723.723,0,0,0,.74.74h.952a1.051,1.051,0,0,0,.846-.635l6.982-17.666A.472.472,0,0,0,83.113,66.559ZM72.746,60.212C72.641,60,72.429,60,72.218,60h-.74a.921.921,0,0,0-.846.635l-.317,2.539a.793.793,0,0,0,.106.529.808.808,0,0,0,.529.212h.74a.921.921,0,0,0,.846-.635l.423-2.539A.808.808,0,0,0,72.746,60.212ZM71.16,66.347h-.74a.922.922,0,0,0-.846.635L66.4,84.542a.793.793,0,0,0,.106.529.808.808,0,0,0,.529.212h.74a.921.921,0,0,0,.846-.635l3.174-17.56a.793.793,0,0,0-.106-.529A1.787,1.787,0,0,0,71.16,66.347Zm-5.289.635a3.084,3.084,0,0,0-2.645-1.058,5.055,5.055,0,0,0-4.02,2.327l.212-1.164a.793.793,0,0,0-.106-.529.808.808,0,0,0-.529-.212h-.529a.921.921,0,0,0-.846.635l-3.174,17.56a.793.793,0,0,0,.106.529.808.808,0,0,0,.529.212h.74a.921.921,0,0,0,.846-.635l2.116-12.059c.529-2.75,2.01-4.549,3.914-4.549h.106a1.752,1.752,0,0,1,1.269.529c.529.635.635,1.8.212,3.385L61.851,84.542a.793.793,0,0,0,.106.529.808.808,0,0,0,.529.212h.74a.921.921,0,0,0,.846-.635l2.433-13.54C66.823,69.309,66.611,67.828,65.87,66.982ZM52.33,75.127A36.5,36.5,0,0,1,57.408,62.01c.106-.106.106-.212,0-.423a.622.622,0,0,0-.529-.212.875.875,0,0,0-.846.423,33.982,33.982,0,0,0-5.607,13.329,28.284,28.284,0,0,0,.74,13.329c0,.212.317.423.846.423.423,0,.529-.212.635-.212a.389.389,0,0,0,.106-.317A29.044,29.044,0,0,1,52.33,75.127ZM155.576,61.8c0-.106-.212-.423-.846-.423a.894.894,0,0,0-.635.212.389.389,0,0,0-.106.317,30.181,30.181,0,0,1,.317,13.117,36.5,36.5,0,0,1-5.078,13.117v.317c.106.212.317.212.529.212a1.057,1.057,0,0,0,.846-.317,33.738,33.738,0,0,0,5.5-13.329A23.412,23.412,0,0,0,155.576,61.8Zm-4.443,5.289a3.438,3.438,0,0,0-2.645-1.164h-.106a4.347,4.347,0,0,0-3.6,2.116l1.269-7.3a.793.793,0,0,0-.106-.529.808.808,0,0,0-.529-.212h-.74a.922.922,0,0,0-.846.635L139.5,84.648a.793.793,0,0,0,.106.529.808.808,0,0,0,.529.212h.529a.922.922,0,0,0,.846-.635l.212-1.375a3.043,3.043,0,0,0,3.068,2.433c3.385,0,5.607-3.279,6.77-9.944C152.614,71.425,152.4,68.569,151.133,67.088Zm-1.587,8.78C148.277,82.744,146.584,83.7,145,83.7a2.093,2.093,0,0,1-1.481-.529c-.846-.952-.846-3.279-.212-7.088,1.269-6.876,2.962-7.722,4.549-7.722a2.093,2.093,0,0,1,1.481.529C150.181,69.732,150.181,72.059,149.546,75.868Zm-21.9-8.992a2.81,2.81,0,0,0-2.327-.952,5.131,5.131,0,0,0-4.231,2.645,3.8,3.8,0,0,0-.74-1.9,2.633,2.633,0,0,0-2.01-.74,5.26,5.26,0,0,0-4.02,2.221l.212-1.058a.793.793,0,0,0-.106-.529.808.808,0,0,0-.529-.212h-.529a.921.921,0,0,0-.846.635l-3.174,17.56a.793.793,0,0,0,.106.529.808.808,0,0,0,.529.212h.74a.921.921,0,0,0,.846-.635l2.116-12.059c.423-2.645,2.01-4.549,3.7-4.549a1.752,1.752,0,0,1,1.269.529c.317.423.635,1.269.212,2.962l-2.327,13.012a.793.793,0,0,0,.106.529.808.808,0,0,0,.529.212h.74a.921.921,0,0,0,.846-.635l2.116-12.059c.423-2.645,2.01-4.549,3.7-4.549a1.752,1.752,0,0,1,1.269.529c.317.423.635,1.269.212,2.962l-2.327,13.012a.793.793,0,0,0,.106.529.808.808,0,0,0,.529.212h.74a.921.921,0,0,0,.846-.635L128.389,70.9C128.6,69.1,128.389,67.722,127.649,66.876Zm-35.861.317a3.622,3.622,0,0,0-2.856-1.269c-3.491,0-6.03,3.385-7.193,9.838-.74,4.231-.529,7.193.846,8.78a3.622,3.622,0,0,0,2.856,1.269c3.491,0,6.03-3.385,7.193-9.944C93.375,71.636,93.057,68.78,91.788,67.193Zm-1.481,8.674c-.952,5.078-2.539,7.828-4.549,7.828a1.706,1.706,0,0,1-1.375-.635c-.846-1.058-1.058-3.491-.317-7.088.952-5.078,2.539-7.722,4.549-7.722a1.706,1.706,0,0,1,1.375.635Q91.259,70.314,90.307,75.868Zm47.815,7.511c-.317,0-.423-.635-.423-.846a2.929,2.929,0,0,1,.106-.952l1.9-10.473a5.1,5.1,0,0,0-.635-4.126,3.666,3.666,0,0,0-2.962-1.164c-3.174,0-5.183,2.116-5.924,6.136v.317h1.481a1.051,1.051,0,0,0,.846-.635h0s.529-3.491,3.279-3.491a2.093,2.093,0,0,1,1.481.529,2.8,2.8,0,0,1,.317,2.433c-.317,2.433-1.693,2.75-2.116,2.856h-.106l-2.962.952c-2.221.74-3.6,2.539-4.126,5.289-.317,2.116-.212,3.6.635,4.549a3.17,3.17,0,0,0,2.539,1.058h0a5.126,5.126,0,0,0,4.126-2.221,1.632,1.632,0,0,0,2.01,2.01,1.094,1.094,0,0,0,.423-.106,1.468,1.468,0,0,0,.74-.846l.106-.529a.793.793,0,0,0-.106-.529A4.159,4.159,0,0,0,138.122,83.378Zm-1.9-5.289c-.106.952-1.058,5.5-4.337,5.5a1.3,1.3,0,0,1-1.058-.529A3.383,3.383,0,0,1,130.4,80.2,4.378,4.378,0,0,1,133.89,76.4H134a6.164,6.164,0,0,0,2.75-1.164ZM98.981,60.212A.582.582,0,0,0,98.452,60h-.74a.921.921,0,0,0-.846.635L92.528,84.648a.793.793,0,0,0,.106.529.808.808,0,0,0,.529.212h.74a.922.922,0,0,0,.846-.635L99.087,60.74A.793.793,0,0,0,98.981,60.212Zm11,6.347a.808.808,0,0,0-.529-.212h-.74a.921.921,0,0,0-.846.635l-2.116,11.954c-.529,2.645-2.116,4.549-3.914,4.549h0a1.443,1.443,0,0,1-1.269-.529c-.317-.423-.74-1.375-.212-3.7v-.106l2.221-12.165a.793.793,0,0,0-.106-.529c-.212,0-.423-.106-.635-.106h-.74a.921.921,0,0,0-.846.635L97.923,80.1V80.2c-.423,2.01-.317,3.6.529,4.549a3.084,3.084,0,0,0,2.645,1.058h0c1.693,0,3.174-1.375,4.02-2.433l-.212,1.164a.793.793,0,0,0,.106.529.808.808,0,0,0,.529.212h.529a.921.921,0,0,0,.846-.635l3.174-17.56A.954.954,0,0,0,109.983,66.559Z" transform="translate(2.916 3.45)" fill="#003b5c"/>
      <g id="Group_201" data-name="Group 201" transform="translate(0 18.112)">
        <path id="Path_882" data-name="Path 882" d="M19.149,18.261c-8.78,0-15.127,4.76-16.5,12.377L.213,44.39c-1.375,7.617,3.279,12.377,12.059,12.377s15.127-4.76,16.5-12.377l2.433-13.752C32.583,23.022,27.929,18.261,19.149,18.261ZM22,30.744l-2.433,13.54c-.212,1.269-.635,3.7-5.712,3.7s-4.655-2.433-4.337-3.7l2.327-13.54c.212-1.269.635-3.7,5.712-3.7S22.216,29.474,22,30.744Zm39.14-1.269a3.261,3.261,0,0,0,.106-1.058C61.78,23.868,60.193,18.9,50.99,18.9H37.872A1.568,1.568,0,0,0,36.5,20.06L30.256,55.392a.956.956,0,0,0,.952,1.164H38.19a1.352,1.352,0,0,0,1.269-1.164l1.9-10.473h5.183c8.04,0,11.531-3.808,13.012-7.722h0a14.206,14.206,0,0,0,.74-2.856Zm-9.2,0-.212,1.164-.635,3.6c-.317,1.481-.317,1.8-3.174,1.8H43.056l.635-3.491h0l.846-4.866H49.4C52.259,27.676,52.153,27.888,51.942,29.474ZM88.12,21.117a13.091,13.091,0,0,0-8.145-2.327H67.281a1.568,1.568,0,0,0-1.375,1.164h0L59.664,55.286a.956.956,0,0,0,.952,1.164h12.8c8.251,0,13.752-4.337,15.021-11.848l2.433-13.858v-.106a10.713,10.713,0,0,0-1.164-7.722A5,5,0,0,0,88.12,21.117Zm-6.559,9.944L79.234,44.39c-.423,2.221-.74,3.279-4.443,3.279H70.243l3.491-19.888h4.549C81.985,27.676,81.985,28.734,81.562,31.061Zm73.944-12.8c-8.78,0-15.127,4.76-16.5,12.377L136.57,44.39c-1.375,7.617,3.279,12.377,12.059,12.377s15.127-4.76,16.5-12.377l2.433-13.752C168.94,23.022,164.286,18.261,155.505,18.261Zm2.856,12.483-2.433,13.54c-.212,1.269-.635,3.7-5.712,3.7s-4.655-2.433-4.337-3.7l2.433-13.54c.212-1.269.635-3.7,5.712-3.7C159,27.041,158.573,29.474,158.362,30.744ZM139.743,17.2,131.6,20.165c-.74.317-1.164.529-1.375,1.058l-9.838,19.464-2.116-13.329c-.317-1.693-.423-2.327-1.375-2.01l-6.559,2.327c-1.164.423-1.269.635-1.164,1.375L113.3,55.709a.927.927,0,0,0,.952.74h7.722a1.3,1.3,0,0,0,1.164-.74l17.878-37.131C141.224,17.838,140.907,16.886,139.743,17.2ZM106,18.9H99.016a1.37,1.37,0,0,0-1.375,1.058L91.4,55.286a.956.956,0,0,0,.952,1.164h7.088a1.352,1.352,0,0,0,1.269-1.164l6.241-35.332A1.125,1.125,0,0,0,106,18.9Z" transform="translate(0.025 -17.141)" fill="#003b5c"/>
      </g>
      <path id="Path_883" data-name="Path 883" d="M149.606.1,110.571,17.982a1.346,1.346,0,0,0-.74.952l-.74,4.126c-.106.423.212.635.529.423L145.057,9.308a1.867,1.867,0,0,0,.952-.846l3.914-8.04C150.135.1,150.029-.107,149.606.1ZM28.27,53.949,1.612,66.643c-.317.106-.317.317.106.317h1.8a1.907,1.907,0,0,0,1.058-.212L27.53,56.7c.317-.106.846-.212.952-.74L28.8,54.69C28.8,53.843,28.482,53.843,28.27,53.949Z" transform="translate(0.107 -0.019)" fill="#f26322"/>
      <path id="Path_884" data-name="Path 884" d="M144,10.5l-34.38,13.646c-.317.212-.74.635-.74.952v.106c-.106.423.212.529.529.423l32.9-11.636a2.062,2.062,0,0,0,.952-.952l1.058-2.221Q144.48,10.343,144,10.5ZM27.217,57.259l-20.2,8.674c-.317.106-.317.317.106.317H8.388a1.14,1.14,0,0,0,.846-.212l17.878-7.617c.317-.106.317-.212.423-.529l.106-.423C27.64,57.048,27.323,57.153,27.217,57.259Z" transform="translate(0.419 0.585)" fill="#008fb4"/>
    </g>
    <path id="Path_885" data-name="Path 885" d="M145.1,186.285a3.493,3.493,0,1,1,3.491,3.385A3.363,3.363,0,0,1,145.1,186.285Zm3.491-2.75a2.753,2.753,0,0,0,0,5.5,2.711,2.711,0,0,0,2.645-2.75A2.645,2.645,0,0,0,148.591,183.535Zm-.529,4.655h-.846v-3.7h1.375c.952,0,1.481.317,1.481,1.164,0,.635-.423.952-1.058.952l.952,1.587h-.846l-.846-1.587h-.423v1.587Zm0-2.221h.74c.423,0,.635-.212.635-.529s-.212-.423-.635-.423h-.635v.952Z" transform="translate(8.395 10.58)" fill="#f26322"/>
    <g id="Group_203" data-name="Group 203" transform="translate(165.872 51.622)">
      <path id="Path_886" data-name="Path 886" d="M156.8,51.868a3.07,3.07,0,0,1,3.068-3.068,3.068,3.068,0,1,1-3.068,3.068Zm3.068,2.539a2.541,2.541,0,1,0-2.433-2.539A2.42,2.42,0,0,0,159.868,54.407Zm-.635-.74H158.7V50.175h1.375q1.269,0,1.269.952c0,.635-.423.846-.952.952l.952,1.587h-.635l-.952-1.481h-.635v1.481Zm.635-2.01c.423,0,.846,0,.846-.529,0-.423-.423-.529-.74-.529h-.74v1.058Z" transform="translate(-156.8 -48.8)" fill="#003b5c"/>
    </g>
  </g>
</svg>
